<svg width="18" height="18" viewBox="0 0 18 18" fill="none" xmlns="http://www.w3.org/2000/svg">
<g clip-path="url(#clip0_2041_24238)">
<path d="M17.8456 3.37893L14.621 0.154425C14.4151 -0.051475 14.0812 -0.051475 13.8753 0.154425L12.5895 1.44023L12.4048 1.25553C12.1989 1.04953 11.865 1.04953 11.659 1.25553C11.4531 1.46143 11.4531 1.79532 11.659 2.00122L11.8438 2.18603L6.5909 7.43883C5.7978 7.51003 5.0244 7.84843 4.4186 8.45423L3.6646 9.20823C3.0505 9.82233 2.7034 10.6036 2.6228 11.4069L0.154499 13.8752C0.0555991 13.9741 0 14.1082 0 14.2481C0 14.388 0.0555991 14.5221 0.154499 14.621L3.379 17.8455C3.4779 17.9444 3.612 18 3.7519 18C3.8918 18 4.0258 17.9444 4.1247 17.8455L6.5931 15.3772C7.3964 15.2966 8.1777 14.9495 8.7917 14.3354L9.5458 13.5814C10.1516 12.9756 10.4899 12.2022 10.5612 11.4091L15.8141 6.15623L15.9988 6.34093C16.1017 6.44393 16.2367 6.49542 16.3716 6.49542C16.5066 6.49542 16.6416 6.44393 16.7445 6.34093C16.9504 6.13493 16.9504 5.80113 16.7445 5.59513L16.5598 5.41043L17.8455 4.12473C18.0515 3.91883 18.0515 3.58493 17.8456 3.37893ZM3.7519 16.7269L1.2731 14.2481L2.7454 12.7759C2.9091 13.3473 3.2154 13.8861 3.6646 14.3354C4.1139 14.7847 4.6527 15.0909 5.2241 15.2546L3.7519 16.7269ZM8.8001 12.8356L8.046 13.5896C7.0436 14.592 5.4127 14.592 4.4104 13.5896C3.408 12.5873 3.408 10.9563 4.4104 9.95403L5.1644 9.19992C5.6454 8.71902 6.2771 8.47853 6.9088 8.47853C7.4064 8.47853 7.9036 8.62843 8.3275 8.92673L6.3144 10.9398C6.1085 11.1457 6.1085 11.4796 6.3144 11.6856C6.4174 11.7885 6.5524 11.84 6.6873 11.84C6.8222 11.84 6.9572 11.7886 7.0601 11.6856L9.0732 9.67253C9.7504 10.6346 9.6597 11.9758 8.8001 12.8356ZM10.4213 10.0574C10.2585 9.52412 9.9668 9.02203 9.5458 8.60113L9.3989 8.45423C8.9779 8.03323 8.4759 7.74153 7.9426 7.57863L12.5896 2.93172L15.0683 5.41043L10.4213 10.0574ZM15.8141 4.66463L13.3353 2.18592L14.2482 1.27313L16.7269 3.75183L15.8141 4.66463Z" fill="black"/>
<path d="M10.8023 6.66992C10.5264 6.66992 10.2622 6.91242 10.2749 7.19722C10.2877 7.48292 10.5066 7.72462 10.8023 7.72462C11.0781 7.72462 11.3424 7.48202 11.3296 7.19722C11.3168 6.91152 11.0979 6.66992 10.8023 6.66992Z" fill="black"/>
<path d="M12.4946 4.97754C12.2187 4.97754 11.9545 5.22014 11.9672 5.50494C11.98 5.79064 12.1989 6.03224 12.4946 6.03224C12.7704 6.03224 13.0347 5.78974 13.0219 5.50494C13.0091 5.21914 12.7902 4.97754 12.4946 4.97754Z" fill="black"/>
</g>
<defs>
<clipPath id="clip0_2041_24238">
<rect width="18" height="18" fill="white"/>
</clipPath>
</defs>
</svg>
