<svg width="18" height="18" viewBox="0 0 18 18" fill="none" xmlns="http://www.w3.org/2000/svg">
<path d="M16.2846 1.53899C15.5975 0.725987 14.6424 0.181988 13.5953 0.00718774C13.3967 -0.0258123 13.202 0.0569879 13.0865 0.210988C12.0958 1.48329 10.607 2.21279 9.00021 2.21279C7.39061 2.21279 5.89921 1.48059 4.90851 0.203988C4.78961 0.050788 4.59631 -0.0246123 4.40511 0.00718774C3.35791 0.181988 2.40291 0.725988 1.71581 1.53889C1.02811 2.35259 0.649414 3.38819 0.649414 4.45509V16.1219C0.649414 16.4131 0.885513 16.6492 1.17681 16.6492H3.78141V17.4727C3.78141 17.7639 4.01751 18 4.30881 18H13.6916C13.9829 18 14.219 17.7639 14.219 17.4727V16.6493H16.8236C17.1149 16.6493 17.351 16.4132 17.351 16.1219V4.45509C17.351 3.38819 16.9723 2.35259 16.2846 1.53899ZM4.30881 7.55229C4.01751 7.55229 3.78141 7.78839 3.78141 8.07959V15.5946H1.70411V4.45509C1.70411 3.63709 1.99431 2.84329 2.52131 2.21979C2.98261 1.67389 3.60151 1.28649 4.28711 1.10939C5.35941 2.35179 6.84911 3.11019 8.47291 3.24559V4.98699H7.92671C7.63541 4.98699 7.39931 5.22309 7.39931 5.51429C7.39931 5.80559 7.63541 6.04169 7.92671 6.04169H8.47291V7.96769H7.92671C7.63541 7.96769 7.39931 8.20379 7.39931 8.49499C7.39931 8.78619 7.63541 9.02239 7.92671 9.02239H8.47291V10.9484H7.92671C7.63541 10.9484 7.39931 11.1845 7.39931 11.4757C7.39931 11.7669 7.63541 12.0031 7.92671 12.0031H8.47291V13.9291H7.92671C7.63541 13.9291 7.39931 14.1652 7.39931 14.4564C7.39931 14.7477 7.63541 14.9838 7.92671 14.9838H8.47291V16.9453H4.83611V8.07959C4.83611 7.78839 4.60001 7.55229 4.30881 7.55229ZM16.2963 15.5946H14.219V8.07959C14.219 7.78839 13.9829 7.55229 13.6916 7.55229C13.4004 7.55229 13.1643 7.78839 13.1643 8.07959V16.9453H9.52761V14.9838H10.0925C10.3837 14.9838 10.6199 14.7477 10.6199 14.4565C10.6199 14.1652 10.3837 13.9291 10.0925 13.9291H9.52761V12.0031H10.0925C10.3837 12.0031 10.6199 11.767 10.6199 11.4757C10.6199 11.1845 10.3837 10.9484 10.0925 10.9484H9.52761V9.02239H10.0925C10.3837 9.02239 10.6199 8.78629 10.6199 8.49499C10.6199 8.20379 10.3837 7.96769 10.0925 7.96769H9.52761V6.04169H10.0925C10.3837 6.04169 10.6199 5.80559 10.6199 5.51439C10.6199 5.22309 10.3837 4.98699 10.0925 4.98699H9.52761V3.24559C11.1514 3.11019 12.6411 2.35169 13.7133 1.10939C14.3989 1.28649 15.0178 1.67389 15.4791 2.21969C16.0061 2.84329 16.2963 3.63709 16.2963 4.45509V15.5946Z" fill="black"/>
</svg>
