<svg width="18" height="18" viewBox="0 0 18 18" fill="none" xmlns="http://www.w3.org/2000/svg">
<path d="M14.3903 2.0447C13.9325 1.1796 13.2058 0.477299 12.3204 0.0520992C12.249 0.0177992 12.1708 0 12.0917 0H5.9091C5.83 0 5.7518 0.0177992 5.6804 0.0520992C4.795 0.477299 4.0684 1.1796 3.6105 2.0447C1.9037 2.559 0.720703 4.1426 0.720703 5.9353V15.5471C0.720703 15.8388 0.957202 16.0753 1.249 16.0753H3.5127V17.4718C3.5127 17.7635 3.7492 18 4.0409 18H13.9598C14.2516 18 14.4881 17.7635 14.4881 17.4718V16.0753H16.7518C17.0435 16.0753 17.28 15.8388 17.28 15.5471V5.9353C17.28 4.1425 16.0971 2.559 14.3903 2.0447ZM13.3192 2.3004L10.6011 3.9394L12.274 1.2371C12.6935 1.5132 13.0505 1.8763 13.3192 2.3004ZM9.0004 4.5179L6.8574 1.0564H11.1434L9.0004 4.5179ZM5.7267 1.2371L7.3997 3.9394L4.6816 2.3004C4.9503 1.8763 5.3073 1.5132 5.7267 1.2371ZM1.7772 15.0189V13.8233H3.5127V15.0189H1.7772ZM13.4316 16.9436H4.5692V7.2437C4.5692 6.952 4.3327 6.7155 4.0409 6.7155C3.7492 6.7155 3.5127 6.952 3.5127 7.2437V12.7668H1.7772V5.9353C1.7772 4.6147 2.6442 3.4473 3.8975 3.0612L6.6493 4.7205V7.8324C6.6493 8.1242 6.8858 8.3606 7.1775 8.3606C7.4693 8.3606 7.7058 8.1242 7.7058 7.8324V5.3575L8.7277 5.9737C8.8116 6.0243 8.906 6.0496 9.0004 6.0496C9.0949 6.0496 9.1893 6.0243 9.2732 5.9737L10.2951 5.3575V6.8976C10.2951 7.1893 10.5315 7.4258 10.8233 7.4258C11.115 7.4258 11.3515 7.1893 11.3515 6.8976V4.7205L14.1034 3.0612C15.3567 3.4473 16.2236 4.6146 16.2236 5.9353V12.7668H14.4881V7.2437C14.4881 6.952 14.2516 6.7155 13.9599 6.7155C13.6682 6.7155 13.4317 6.952 13.4317 7.2437V16.9436H13.4316ZM14.4881 15.0189V13.8233H16.2236V15.0189H14.4881Z" fill="black"/>
<path d="M11.6417 11.1963H6.35925C6.06755 11.1963 5.83105 11.4327 5.83105 11.7245V13.6606C5.83105 14.6162 6.60845 15.3937 7.56405 15.3937H10.4369C11.3925 15.3937 12.17 14.6162 12.17 13.6606V11.7245C12.1699 11.4327 11.9334 11.1963 11.6417 11.1963ZM11.1135 13.6606C11.1135 14.0337 10.8099 14.3372 10.4368 14.3372H7.56405C7.19095 14.3372 6.88745 14.0337 6.88745 13.6606V12.2527H11.1135V13.6606Z" fill="black"/>
</svg>
