<svg width="18" height="18" viewBox="0 0 18 18" fill="none" xmlns="http://www.w3.org/2000/svg">
<path d="M15.1757 15.4949L13.0532 6.3844V0.5273C13.0532 0.2361 12.8171 0 12.5259 0H10.7423C10.451 0 10.2149 0.2361 10.2149 0.5273C10.2149 1.1975 9.66966 1.7427 8.99956 1.7427C8.32946 1.7427 7.78426 1.1975 7.78426 0.5273C7.78426 0.2361 7.54816 0 7.25696 0H5.47326C5.33336 0 5.19906 0.0556993 5.10016 0.154699C5.00116 0.253799 4.94576 0.3882 4.94596 0.5282L4.95516 6.345L2.82356 15.495C2.80926 15.5431 2.80176 15.5936 2.80176 15.6451V15.6492C2.80176 15.8937 2.96906 16.1028 3.20066 16.1607C4.10826 16.5079 5.05036 16.7733 6.00626 16.9518C6.00376 16.9726 6.00216 16.9935 6.00216 17.0146C6.00216 17.253 6.16086 17.4564 6.38136 17.5208C7.21766 17.8388 8.09836 18 8.99956 18C9.90546 18 10.7904 17.8372 11.6305 17.516C11.8443 17.4475 11.9971 17.2466 11.9971 17.0128C11.9971 16.9923 11.9955 16.972 11.9931 16.9519C12.9493 16.7733 13.8908 16.5079 14.7985 16.1607C15.0301 16.1028 15.1975 15.8937 15.1975 15.6491V15.645C15.1975 15.5936 15.1899 15.5431 15.1757 15.4949ZM6.79146 1.0547C7.02986 2.0529 7.92946 2.7973 8.99956 2.7973C10.0698 2.7973 10.9694 2.0529 11.2078 1.0547H11.9986V5.9177H6.00916L6.00146 1.0547H6.79146ZM11.8447 15.9059L11.0076 10.0204C10.9665 9.7321 10.6994 9.5315 10.4112 9.5726C10.1229 9.6137 9.92236 9.8806 9.96336 10.169L10.8864 16.6585C10.278 16.849 9.64506 16.9453 8.99956 16.9453C8.35416 16.9453 7.72116 16.8489 7.11286 16.6585L8.03586 10.169C8.07686 9.8806 7.87636 9.6137 7.58806 9.5726C7.29986 9.5318 7.03266 9.7321 6.99166 10.0204L6.15436 15.9068C5.40616 15.7646 4.66726 15.5654 3.94906 15.3122L5.89186 6.9724H12.1073L14.0501 15.3122C13.3319 15.5654 12.5932 15.7637 11.8447 15.9059Z" fill="black"/>
</svg>
