<svg width="18" height="18" viewBox="0 0 18 18" fill="none" xmlns="http://www.w3.org/2000/svg">
<path d="M16.0799 9.1533C15.4226 8.4445 14.5243 8.0542 13.5507 8.0542H12.2876C11.1886 8.0542 10.2945 7.1601 10.2945 6.0611V0.5284C10.2945 0.2366 10.058 0 9.76618 0H7.88068C6.89838 0 6.07048 0.6741 5.83528 1.584H1.42098C1.12918 1.584 0.892578 1.8205 0.892578 2.1123V17.4879C0.892578 17.7797 1.12918 18 1.42098 18H5.52488C5.68278 18 5.83248 17.9456 5.93288 17.8237L6.46098 17.0058H8.36408L8.89318 17.7719C8.99178 17.9147 9.15438 18 9.32798 18H16.5797C16.8714 18 17.108 17.7634 17.108 17.4716V11.9547C17.108 10.8631 16.7429 9.8682 16.0799 9.1533ZM7.88068 1.0568H9.23778V5.1934L7.72868 6.7025C7.52228 6.9088 7.52228 7.2434 7.72868 7.4497C7.83178 7.5529 7.96708 7.6045 8.10228 7.6045C8.23748 7.6045 8.37268 7.5529 8.47588 7.4497L9.29188 6.6337C9.37408 7.0648 9.54728 7.4641 9.79088 7.8105L8.47018 9.1312C8.26388 9.3375 8.26388 9.672 8.47018 9.8784C8.57338 9.9816 8.70858 10.0331 8.84378 10.0331C8.97898 10.0331 9.11428 9.9815 9.21738 9.8784L10.5381 8.5577C10.8846 8.8013 11.2838 8.9744 11.7149 9.0567L10.8989 9.8727C10.6926 10.0791 10.6926 10.4136 10.8989 10.6199C11.0021 10.7231 11.1373 10.7747 11.2725 10.7747C11.4077 10.7747 11.543 10.7231 11.6461 10.6199L13.1552 9.1108H13.5507C14.9996 9.1108 16.0513 10.3069 16.0513 11.9547V13.6351H6.31618L5.19878 12.933C5.11458 12.8801 5.01718 12.852 4.91768 12.852H1.94938V4.9014H5.23378C6.11128 4.9014 6.82518 4.1876 6.82518 3.3101C6.82518 3.3101 6.82518 2.1242 6.82518 2.1123C6.82508 1.5303 7.29868 1.0568 7.88068 1.0568ZM5.76838 2.6407V3.3101C5.76838 3.6049 5.52858 3.8447 5.23378 3.8447H1.94938V2.6407H5.76838ZM16.0513 16.9432H9.60518L9.07608 16.1771C8.97748 16.0343 8.81498 15.949 8.64138 15.949H6.21148C6.05358 15.949 5.90388 16.0197 5.80348 16.1416L5.27538 16.9432H1.94938V13.9088H4.76548L5.88288 14.6109C5.96708 14.6638 6.06448 14.6919 6.16398 14.6919H16.0513V15.8603V16.9432Z" fill="black"/>
</svg>
