<svg width="18" height="18" viewBox="0 0 18 18" fill="none" xmlns="http://www.w3.org/2000/svg">
<path d="M17.7579 12.3918L15.0648 10.66L14.0993 4.49281C13.993 3.81341 13.4167 3.32031 12.7291 3.32031H11.0765C10.4627 3.32031 9.9297 3.71471 9.7502 4.30161V4.30171C9.7071 4.44231 9.5795 4.53681 9.4325 4.53681H8.5675C8.4204 4.53681 8.2928 4.44231 8.2498 4.30161C8.0703 3.71471 7.5373 3.32031 6.9235 3.32031H5.2709C4.5832 3.32031 4.007 3.81341 3.9007 4.49271L2.9351 10.6599L0.2421 12.3918C0.0911998 12.4888 0 12.6559 0 12.8353V14.1527C0 14.4439 0.2361 14.68 0.5273 14.68H17.4727C17.7639 14.68 18 14.4439 18 14.1527V12.8353C18 12.6559 17.9088 12.4888 17.7579 12.3918ZM4.9427 4.65581C4.9682 4.49311 5.1062 4.37511 5.2709 4.37511H6.9235C7.0706 4.37511 7.1982 4.46961 7.2412 4.61021C7.4207 5.19711 7.9537 5.59151 8.5675 5.59151H9.4325C10.0463 5.59151 10.5793 5.19711 10.7588 4.61011C10.8018 4.46961 10.9294 4.37511 11.0765 4.37511H12.7291C12.8938 4.37511 13.0318 4.49311 13.0573 4.65591L13.9642 10.4481H4.0358L4.9427 4.65581ZM16.9453 13.6253H1.0547V13.1232L3.5744 11.5028H14.4255L16.9453 13.1232V13.6253Z" fill="black"/>
</svg>
