<svg width="18" height="18" viewBox="0 0 18 18" fill="none" xmlns="http://www.w3.org/2000/svg">
<path d="M14.5828 7.68941C14.0991 7.62781 13.5886 7.54081 12.9449 7.40971L8.3694 2.83411C8.1634 2.62821 7.8295 2.62821 7.6236 2.83411C6.8735 3.58421 6.4604 4.58161 6.4604 5.64241C6.4604 6.04611 6.5204 6.44051 6.6359 6.81571L4.7302 5.51781C3.5025 4.68161 2.079 4.11111 0.613701 3.86801C0.460901 3.84261 0.304599 3.88581 0.186399 3.98601C0.0681995 4.08621 0 4.23331 0 4.38821V14.7929C0 15.0841 0.236099 15.3202 0.527399 15.3202H5.4254C5.7167 15.3202 5.9528 15.0841 5.9528 14.7929V14.3575L9.5213 15.2976C9.5652 15.3092 9.6103 15.315 9.6557 15.315H17.4727C17.7639 15.315 18 15.0789 18 14.7877V11.5731C18 9.60661 16.5309 7.93701 14.5828 7.68941ZM9.359 8.45181L10.9272 6.88351L11.935 7.89141L10.7427 9.06471C10.2732 8.87951 9.8116 8.67491 9.359 8.45181ZM8.0299 3.98621L10.1815 6.13781L8.4918 7.82741L8.3694 7.70491C7.8185 7.15401 7.5151 6.42151 7.5151 5.64241C7.515 5.04211 7.6952 4.46941 8.0299 3.98621ZM4.1364 6.38951L6.5383 8.02531C7.8284 8.90391 9.2239 9.62641 10.686 10.1727C10.8781 10.2444 11.0943 10.1984 11.2405 10.0546L12.8562 8.46781C13.4703 8.59081 13.9706 8.67471 14.4497 8.73561C15.8724 8.91651 16.9453 10.1363 16.9453 11.5731V11.9894H10.0579L5.5598 10.8043C5.5159 10.793 5.4707 10.7872 5.4254 10.7869H1.0547V5.03221C2.1517 5.29271 3.2066 5.75621 4.1364 6.38951ZM16.9453 14.2603H9.724L5.5598 13.1632C5.4016 13.1216 5.2331 13.1556 5.1035 13.2555C4.974 13.3553 4.8981 13.5096 4.8981 13.6732V14.2656H1.0547V11.8416H5.3571L9.8552 13.0268C9.8662 13.0297 9.8772 13.0322 9.8884 13.0343C9.9224 13.041 9.9564 13.0443 9.9899 13.0443C9.991 13.0443 9.9921 13.0442 9.9932 13.0442H16.9453V14.2603Z" fill="black"/>
</svg>
