<svg width="18" height="18" viewBox="0 0 18 18" fill="none" xmlns="http://www.w3.org/2000/svg">
<path d="M14.4126 2.3485C14.4046 2.316 14.3941 2.2839 14.3798 2.253C13.9436 1.3045 13.1852 0.5333 12.2441 0.0813999L12.1832 0.0522003C12.1117 0.0178003 12.0335 0 11.9542 0H6.04638C5.96708 0 5.88877 0.0178003 5.81727 0.0522003L5.75648 0.0813999C4.81548 0.5333 4.05698 1.3045 3.62078 2.253C3.60648 2.284 3.59597 2.3161 3.58807 2.3488C1.96897 2.8907 0.859375 4.414 0.859375 6.1423V15.9336C0.859375 16.2258 1.09628 16.4628 1.38848 16.4628H3.91858V17.4708C3.91858 17.7631 4.15547 18 4.44767 18H13.5529C13.8452 18 14.0821 17.7631 14.0821 17.4708V16.4628H16.6121C16.9043 16.4628 17.1412 16.2258 17.1412 15.9336V6.1423C17.1412 4.4101 16.0329 2.8903 14.4126 2.3485ZM16.0829 9.9919H14.0821V7.8866H16.0829V9.9919ZM13.0237 9.9919H9.52907L9.52507 7.8866H13.0237V9.9919ZM8.47078 9.9919H4.97688V7.8866H8.46677L8.47078 9.9919ZM3.91858 9.9919H1.91768V7.8866H3.91858V9.9919ZM1.91768 11.0502H3.91858V13.1554H1.91768V11.0502ZM4.97688 11.0502H8.47277L8.47668 13.1554H4.97677V11.0502H4.97688ZM9.53107 11.0502H13.0237V13.1554H9.53507L9.53107 11.0502ZM14.0821 11.0502H16.0829V13.1554H14.0821V11.0502ZM13.3067 2.4741C12.9631 3.0975 12.4305 3.6031 11.7859 3.9127C11.5225 4.0392 11.4114 4.3553 11.538 4.6188C11.629 4.8084 11.8182 4.919 12.0154 4.919C12.0922 4.919 12.1702 4.9022 12.2441 4.8667C12.9635 4.5212 13.5756 3.9886 14.0192 3.3334C15.2418 3.7146 16.0828 4.8478 16.0828 6.1422V6.8283H9.52308L9.51597 3.0993C10.6849 3.0425 11.6508 2.202 11.8999 1.0935C12.4932 1.4063 12.9836 1.8879 13.3067 2.4741ZM10.8093 1.0583C10.5942 1.6335 10.0389 2.0442 9.38968 2.0442H8.61087C7.96157 2.0442 7.40637 1.6335 7.19127 1.0583H10.8093ZM3.99178 3.3297C4.44658 3.98 5.06887 4.5044 5.79607 4.8388C6.06147 4.9609 6.37578 4.8447 6.49788 4.5792C6.61998 4.3137 6.50378 3.9994 6.23828 3.8773C5.59028 3.5793 5.05058 3.0844 4.69658 2.4691C5.01968 1.8851 5.50898 1.4054 6.10068 1.0935C6.34788 2.1935 7.30087 3.0292 8.45767 3.0975L8.46478 6.8283H1.91768V6.1423C1.91768 4.847 2.76448 3.7077 3.99178 3.3297ZM1.91768 15.4044V14.2138H3.91858V15.4044H1.91768ZM4.97688 14.2138H8.47878L8.48397 16.9417H4.97688V14.2138ZM9.54227 16.9417L9.53708 14.2138H13.0237V16.9417H9.54227ZM14.0821 15.4044V14.2138H16.0829V15.4044H14.0821Z" fill="black"/>
</svg>
