<svg width="18" height="18" viewBox="0 0 18 18" fill="none" xmlns="http://www.w3.org/2000/svg">
<path d="M14.7255 5.4705H13.4081V4.4085C13.4081 1.9776 11.4305 0 8.99957 0C6.56877 0 4.59107 1.9776 4.59107 4.4085V5.4705H3.27367C2.37917 5.4705 1.65137 6.1983 1.65137 7.0929V14.3761C1.65137 16.3743 3.27707 18 5.27527 18H12.724C14.7222 18 16.3478 16.3743 16.3478 14.3761V7.0929C16.3478 6.1983 15.62 5.4705 14.7255 5.4705ZM5.64577 4.4085C5.64577 2.5592 7.15027 1.0547 8.99957 1.0547C10.8489 1.0547 12.3534 2.5592 12.3534 4.4085V5.4705H5.64577V4.4085ZM7.58797 6.5252H10.4112V7.092C10.4112 7.8704 9.77787 8.5036 8.99957 8.5036C8.22117 8.5036 7.58797 7.8704 7.58797 7.092V6.5252ZM15.2931 14.3761C15.2931 15.7928 14.1406 16.9453 12.7239 16.9453H5.27527C3.85857 16.9453 2.70607 15.7928 2.70607 14.3761V7.0929C2.70607 6.7799 2.96077 6.5252 3.27367 6.5252H6.53327V7.092C6.53327 8.4519 7.63967 9.5583 8.99957 9.5583C10.3595 9.5583 11.4659 8.4519 11.4659 7.092V6.5252H14.7255C15.0384 6.5252 15.2931 6.7799 15.2931 7.0929V14.3761Z" fill="black"/>
<path d="M12.6264 10.7686H5.3731C5.0818 10.7686 4.8457 11.0047 4.8457 11.296V11.4847C4.8457 13.7752 6.7092 15.6387 8.9997 15.6387C11.2903 15.6387 13.1537 13.7752 13.1537 11.4847V11.296C13.1537 11.0047 12.9176 10.7686 12.6264 10.7686ZM8.9997 14.584C7.4052 14.584 6.088 13.3735 5.9188 11.8233H12.0807C11.9114 13.3735 10.5943 14.584 8.9997 14.584Z" fill="black"/>
</svg>
