<svg width="26" height="40" viewBox="0 0 26 40" fill="none" xmlns="http://www.w3.org/2000/svg">
<path d="M13 0C5.83163 0 0 5.97869 0 13.3269V26.6739C0 34.0219 5.83163 40 13 40C20.1684 40 26 34.0221 26 26.6739V13.3269C26 5.97869 20.1682 0 13 0ZM24.5556 26.6739C24.5556 33.2052 19.3717 38.5185 13 38.5185C6.62826 38.5185 1.44442 33.2052 1.44442 26.6739V13.3269C1.44442 6.79556 6.62826 1.48146 13 1.48146C19.3717 1.48146 24.5556 6.79536 24.5556 13.3269V26.6739Z" fill="#101010"/>
<path d="M13 5.44438C12.6012 5.44438 12.2777 5.77573 12.2777 6.18521V12.8931C12.2777 13.3026 12.6012 13.634 13 13.634C13.3989 13.634 13.7223 13.3026 13.7223 12.8931V6.18521C13.7221 5.77573 13.3989 5.44438 13 5.44438Z" fill="#101010"/>
</svg>
