<svg width="170" height="30" viewBox="0 0 170 30" fill="none" xmlns="http://www.w3.org/2000/svg">
    <path d="M10.24 8.83997H3V3.23997H25V8.83997H17.76V29H10.24V8.83997Z" fill="#101010"/>
    <path d="M28.9828 3.23997H48.5028V8.99997H36.5028V13.2H47.0228V19.04H36.5028V23.24H48.5028V29H28.9828V3.23997Z" fill="#101010"/>
    <path d="M58.5369 8.83997H51.2969V3.23997H73.2969V8.83997H66.0569V29H58.5369V8.83997Z" fill="#101010"/>
    <path d="M77.2797 3.23997H84.7997V12.84H93.6797V3.23997H101.2V29H93.6797V19.4H84.7997V29H77.2797V3.23997Z" fill="#101010"/>
    <path d="M115.299 19.56L106.019 3.23997H113.859L119.059 12.96L124.259 3.23997H132.099L122.819 19.56V29H115.299V19.56Z" fill="#101010"/>
    <path d="M142.727 29.4C140.967 29.4 139.314 29.2666 137.768 29C136.221 28.7066 134.914 28.3066 133.848 27.8V21.6C135.074 22.16 136.421 22.6133 137.887 22.96C139.354 23.3066 140.714 23.48 141.967 23.48C143.408 23.48 144.434 23.36 145.048 23.12C145.688 22.8533 146.008 22.3466 146.008 21.6C146.008 21.12 145.848 20.7333 145.527 20.44C145.234 20.12 144.794 19.8533 144.208 19.64C143.621 19.4 142.688 19.08 141.408 18.68C140.981 18.5733 140.661 18.48 140.447 18.4C138.688 17.84 137.301 17.2266 136.288 16.56C135.301 15.8933 134.581 15.0933 134.128 14.16C133.701 13.2 133.488 12.0133 133.488 10.6C133.488 8.06663 134.394 6.14663 136.208 4.83997C138.021 3.50663 140.688 2.83997 144.208 2.83997C145.568 2.83997 146.994 2.95997 148.488 3.19997C150.008 3.4133 151.261 3.67997 152.247 3.99997V10.24C149.901 9.30663 147.621 8.83997 145.408 8.83997C143.994 8.83997 142.928 8.94663 142.208 9.15997C141.514 9.3733 141.167 9.83997 141.167 10.56C141.167 11.0133 141.314 11.3733 141.607 11.64C141.901 11.9066 142.341 12.1466 142.928 12.36C143.541 12.5466 144.568 12.8266 146.008 13.2C148.061 13.76 149.634 14.44 150.728 15.24C151.848 16.0133 152.621 16.9066 153.048 17.92C153.474 18.9333 153.688 20.16 153.688 21.6C153.688 24 152.754 25.9066 150.887 27.32C149.048 28.7066 146.327 29.4 142.727 29.4Z" fill="#101010"/>
    <path d="M159.8 24H165.72V29.4H159.8V24Z" fill="#7CBFF0"/>
</svg>
