<svg width="255" height="140" viewBox="0 0 255 140" fill="none" xmlns="http://www.w3.org/2000/svg">
<path d="M161.266 0.22304C169.936 -0.199371 176.128 0.0444614 178.823 0.406528C180.815 0.708249 182.972 1.62718 183.269 3.76331C183.565 5.89945 181.359 7.04195 179.777 7.94712C161.676 18.3867 143.867 29.2487 125.59 39.3865C118.971 43.0675 105.731 50.3719 105.731 50.7916C105.731 51.2113 109.363 50.6106 111.004 50.2485C112.058 50.0675 113.113 49.8865 114.167 49.7658C115.339 49.6451 116.569 49.6451 117.155 51.033C117.682 52.3002 116.92 53.145 116.276 53.9899C114.929 55.7399 111.589 58.1536 111.472 58.3347C111.062 58.9381 111.882 59.1191 112.234 58.9381C114.46 58.0329 116.686 57.1278 118.912 56.1623C120.904 55.3174 122.778 54.533 125.063 55.2571C127.113 55.8605 128.578 53.9295 130.452 53.5071C132.62 53.0244 135.022 49.7658 136.779 54.2312C137.189 55.3174 138.126 54.1709 138.712 53.8088C144.219 50.3692 149.901 47.4727 155.818 44.9986C156.814 44.5761 158.044 43.7917 158.747 44.8779C159.508 46.0848 158.395 47.1106 157.399 47.8347C156.521 48.4985 155.583 48.9813 154.705 49.5847C154.178 49.9468 153.299 50.3692 153.65 51.1537C154.06 52.1795 154.822 51.4893 155.408 51.3686C155.877 51.3083 156.594 50.4531 157.048 51.1537C157.399 52.2841 151.951 54.0502 149.315 54.8347C148.202 55.1968 147.206 54.533 147.558 52.964C147.675 52.4813 148.554 52.0588 147.792 51.5157C147.089 50.9726 146.562 51.6968 146.035 51.9985C142.403 53.9295 138.829 55.8605 135.197 57.7916C133.44 58.7571 131.8 59.7226 130.921 56.8261C130.452 55.4381 129.574 56.1019 128.812 56.5243C125.239 58.3347 121.665 60.145 118.15 61.9553C116.862 62.6191 115.631 63.1622 114.518 61.7139C113.757 60.6881 112.995 61.2312 112.234 61.7139C107.137 64.7312 101.338 66.4812 96.4756 69.9811C96.2999 70.1018 96.1827 70.2225 95.9484 70.2829C94.7768 70.7053 93.0779 71.4897 92.4921 70.1018C92.0235 68.9553 93.488 67.9898 94.601 67.326C100.752 63.7053 106.962 60.0846 112.117 55.0761C112.702 54.4726 114.108 54.0502 113.347 52.783C112.761 51.7571 111.824 52.4813 110.945 52.6623C101.162 54.8347 92.4335 59.6019 83.5879 64.1277C65.545 73.4208 48.5566 84.6448 31.3339 95.5068C30.4552 96.0499 29.5921 96.4723 29.1467 95.9223C28.7013 95.3723 29.1665 94.4809 30.1623 93.7568C45.6276 81.6879 62.9675 72.8173 79.8387 63.1622C107.196 47.4727 134.494 31.7228 161.793 15.9126C167.417 12.654 170.8 10.8464 172.302 9.86656C173.805 8.88669 180.532 5.86435 179.777 3.76331C179.119 1.93234 170.346 2.09371 165.191 2.15406C139.357 2.45578 115.456 10.6626 92.4921 22.0074C64.5492 35.8262 30.9251 60.8286 16.1056 74.8661C13.118 77.5816 10.2449 80.6017 7.37447 83.4983C6.55434 84.3431 5.03473 86.1806 5.73203 87.3778C6.61074 88.8864 7.80675 88.5984 11.3634 87.3778C14.9201 86.1571 19.3659 84.2224 22.0334 82.8003C24.7009 81.3783 26.1828 80.0539 26.8232 80.3604C27.3684 80.6642 26.8818 81.2052 26.7061 81.3862C21.0238 85.6103 14.5799 87.9034 7.96028 89.8948C6.14428 90.4379 4.63082 89.8191 3.95369 88.5984C3.27657 87.3778 3.74247 85.4896 4.73834 84.2224C12.8225 74.2656 22.7812 66.4812 32.6227 58.6364C57.5195 38.9038 83.705 21.3436 113.698 10.5419C128.754 5.11093 146.562 0.886828 161.266 0.22304Z" fill="#C1CDBA"/>
<path d="M168.12 98.2223C167.241 97.9809 166.655 97.4378 166.538 96.412C166.421 95.5671 166.772 95.1447 167.593 95.024C168.764 94.9034 169.116 95.6878 169.116 96.6533C169.116 97.3171 169.057 98.1619 168.12 98.2223Z" fill="#C1CDBA"/>
<path d="M254.698 27.8711C254.106 26.3453 253.062 25.8091 250.953 25.8091C247.731 25.8091 244.567 26.4728 241.463 27.197C215.687 33.0504 190.849 42.0417 166.948 53.3864C137.716 67.2656 109.07 82.4121 80.1316 97.0154C72.399 100.938 64.8421 105.102 57.0509 108.722C49.2596 112.343 38.6312 120.335 33.5014 119.222C22.0782 124.894 11.238 130.733 0.693438 138.035C-0.492135 138.856 -0.195761 140.476 1.87895 139.866C6.02841 138.34 12.0609 136.722 17.0403 133.825C27.5848 127.731 38.0707 121.395 48.8496 115.783C78.4914 100.395 108.367 85.4896 137.951 70.1018C167.417 54.7743 197.82 42.102 229.512 32.7487C235.663 30.9383 241.814 29.128 248.258 28.6452C249.723 28.5245 250.894 29.0073 251.656 30.4556C252.222 31.5331 251.714 33.1711 250.777 34.1969C248.727 36.5503 246.325 38.3607 243.513 39.6279C236.015 43.0675 228.458 46.5072 220.725 49.283C188.154 60.9898 155.701 72.9983 123.833 86.7569C120.084 88.3862 116.217 89.7741 113.113 92.6706C110.711 94.9034 110.945 96.6533 113.933 98.0413C116.334 99.1275 118.853 98.8257 121.431 98.4033C121.372 99.8516 119.439 100.757 120.962 102.265C122.31 103.593 123.54 102.688 124.77 102.326C127.289 101.602 129.749 100.757 132.268 99.9119C133.85 99.3688 135.49 98.4033 135.08 101.541C135.022 101.903 135.432 102.507 135.783 102.808C137.951 104.619 145.508 103.593 147.675 101.119C145.566 101.24 143.633 101.179 141.7 101.421C140.353 101.602 138.888 102.507 138.068 100.817C137.248 99.1878 139.005 98.6447 139.884 97.8602C140.587 97.2568 141.348 96.6533 140.763 95.6275C140.235 94.7827 139.474 95.2051 138.654 95.4465C135.022 96.774 131.331 98.0413 127.699 99.3688C126.703 99.7309 125.177 100.5 124.594 99.4895C124.287 97.4481 130.687 95.6275 133.733 93.6965C136.428 91.9465 137.599 89.412 136.486 86.2741C135.959 84.7052 136.603 84.0414 137.658 83.3776C138.595 82.8345 139.591 82.4121 140.587 81.9897C165.249 71.7311 190.322 62.7398 215.336 53.4468C226.232 49.4037 237.128 45.1796 247.379 39.5072C250.543 37.7572 253.322 35.6245 254.585 31.7228C254.995 30.4556 255.215 29.2007 254.698 27.8711ZM9.88146 134.983C11.0531 133.233 20.2551 127.659 23.8117 127.049C22.0334 130.1 13.7345 134.373 9.88146 134.983ZM115.046 96.1102C114.803 94.0913 131.994 84.9365 133.03 87.1793C136.736 92.6706 118.063 98.0413 115.046 96.1102Z" fill="#C1CDBA"/>
</svg>
