<svg width="39" height="40" viewBox="0 0 39 40" fill="none" xmlns="http://www.w3.org/2000/svg">
<circle cx="18" cy="23" r="17" fill="#EFE8E0"/>
<path d="M33.2345 28.633C36.8925 25.5736 39 21.0586 39 16.25C39 7.27997 31.7147 0 22.7382 0C17.9108 0 13.4377 2.11956 10.3254 5.74031C9.73024 5.13444 9.10556 4.61228 8.49277 4.29C7.25689 3.64003 5.69575 3.9 4.72004 4.875L3.0938 6.49997C-0.158521 9.75 -0.874068 13.52 1.07736 17.68C1.7278 19.045 2.70352 20.41 3.93947 21.645L17.2742 34.97C18.3149 36.0099 19.3557 36.855 20.4615 37.44C22.2829 38.48 24.1042 39 25.7954 39C28.2021 39 30.4788 37.96 32.4953 35.945L34.1214 34.2549C35.1622 33.2799 35.3573 31.72 34.7069 30.485C34.3807 29.8655 33.8498 29.2339 33.2345 28.633ZM22.7382 1.30003C30.9992 1.30003 37.6991 7.995 37.6991 16.2501C37.6991 20.7303 35.7516 24.8862 32.246 27.7459C30.5846 26.3616 28.7788 25.3009 28.6575 25.2201C28.1179 24.9055 27.5162 24.7465 26.9596 24.7426C26.7132 24.7397 26.4756 24.7688 26.2508 24.8301C25.7304 24.9601 25.2751 25.285 24.9498 25.805C24.2994 26.65 23.4537 27.5601 23.2586 27.6901C21.6974 28.7301 20.4616 28.6001 19.1606 27.3001L12.3132 20.3977C12.2813 20.3528 12.2438 20.3126 12.2005 20.2801C12.2005 20.2801 12.1919 20.2731 12.1764 20.2598L11.7452 19.8251C10.4442 18.4601 10.3141 17.2901 11.3549 15.7301C11.55 15.5351 12.4607 14.6901 13.2413 14.0401C13.3316 13.9756 13.4191 13.9059 13.5028 13.8317C13.6474 13.7167 13.7705 13.5836 13.8711 13.4363C14.0318 13.2239 14.1546 12.9896 14.217 12.7401C14.4121 12.025 14.217 11.1801 13.7617 10.3351C13.6808 10.2139 12.6193 8.40945 11.234 6.74921C14.0957 3.24606 18.2546 1.30003 22.7382 1.30003ZM33.1457 33.41L31.5196 35.035C28.4623 38.09 25.0148 38.545 21.0469 36.335C20.0712 35.815 19.0955 35.0349 18.1848 34.125L4.85008 20.735C3.67923 19.565 2.83364 18.33 2.24821 17.0949C0.55695 13.455 1.14238 10.27 4.00449 7.41L5.63065 5.78503C6.21608 5.20003 7.12677 5.07 7.77722 5.46C9.92379 6.56503 12.5257 10.92 12.5257 10.985C12.8509 11.505 12.981 12.0249 12.8509 12.4149C12.7859 12.6099 12.6558 12.8049 12.3956 12.935L12.3306 12.9999C11.8102 13.52 10.4442 14.6249 10.184 15.0149C9.80647 15.5719 9.54875 16.1238 9.40971 16.6681C8.96073 15.7666 8.6052 14.7271 8.49277 13.5849C8.42774 13.1949 8.1675 12.935 7.77722 12.9999C7.38693 13.0649 7.12677 13.3899 7.19179 13.715C7.6471 18.2649 11.2248 21.19 11.3548 21.32L18.2498 28.21C18.2996 28.2597 18.3494 28.3078 18.3994 28.3549C18.4135 28.372 18.4287 28.3887 18.445 28.4049C18.51 28.535 21.4371 31.3949 25.9254 31.85H25.9904C26.3157 31.85 26.5758 31.59 26.6409 31.265C26.6409 30.875 26.3807 30.615 26.0554 30.55C24.6885 30.4156 23.4684 30.0113 22.456 29.5388C22.9669 29.3873 23.4815 29.1356 23.9739 28.7949C24.4292 28.535 25.535 27.2349 25.9903 26.6499L26.0554 26.585C26.1855 26.325 26.3155 26.195 26.5758 26.13C26.5897 26.1254 26.6043 26.1218 26.6185 26.1177C26.9942 26.0898 27.4678 26.2182 27.9418 26.4549C27.9418 26.4549 32.365 29.0549 33.4708 31.1999C33.8613 31.915 33.7312 32.825 33.1457 33.41Z" fill="black"/>
<path d="M22.7382 4.54998C23.1284 4.54998 23.3886 4.29001 23.3886 3.90001V2.59998C23.3886 2.20998 23.1284 1.95001 22.7382 1.95001C22.3479 1.95001 22.0877 2.20998 22.0877 2.59998V3.90001C22.0877 4.29001 22.3479 4.54998 22.7382 4.54998Z" fill="black"/>
<path d="M35.0972 16.9H36.3981C36.7884 16.9 37.0486 16.64 37.0486 16.25C37.0486 15.86 36.7884 15.6001 36.3981 15.6001H35.0972C34.7069 15.6001 34.4467 15.86 34.4467 16.25C34.4467 16.64 34.7069 16.9 35.0972 16.9Z" fill="black"/>
<path d="M31.4545 8.19001C31.6497 8.19001 31.7798 8.12503 31.9098 7.99501L32.8205 7.08498C33.0807 6.82501 33.0807 6.43501 32.8205 6.17496C32.5604 5.91498 32.1701 5.91498 31.9098 6.17496L30.9992 7.08498C30.739 7.34496 30.739 7.73496 30.9992 7.99501C31.1293 8.12503 31.2594 8.19001 31.4545 8.19001Z" fill="black"/>
<path d="M31.9098 26.325C32.04 26.455 32.17 26.52 32.3652 26.52C32.5603 26.52 32.7554 26.52 32.8205 26.325C33.0806 26.065 33.0806 25.675 32.8205 25.415L31.9098 24.505C31.6497 24.2451 31.2594 24.2451 30.9992 24.505C30.739 24.765 30.739 25.155 30.9992 25.4151L31.9098 26.325Z" fill="black"/>
<path d="M14.4772 7.995C14.7373 7.73502 14.7373 7.34502 14.4772 7.08497L13.5665 6.17502C13.3063 5.91505 12.916 5.91505 12.6558 6.17502C12.3955 6.43499 12.3956 6.82499 12.6558 7.08505L13.5665 7.99507C13.6966 8.1251 13.8266 8.19007 14.0218 8.19007C14.1519 8.19 14.347 8.12502 14.4772 7.995Z" fill="black"/>
<path d="M22.7382 16.9H27.2915C27.6817 16.9 27.9419 16.6401 27.9419 16.2501C27.9419 15.8601 27.6817 15.6001 27.2915 15.6001H23.3886V7.15003C23.3886 6.76003 23.1284 6.50006 22.7382 6.50006C22.3479 6.50006 22.0877 6.76003 22.0877 7.15003V16.2501C22.0877 16.64 22.3479 16.9 22.7382 16.9Z" fill="black"/>
</svg>
