<svg width="44" height="30" viewBox="0 0 44 30" fill="none" xmlns="http://www.w3.org/2000/svg">
<rect y="6" width="35" height="24" rx="2" fill="#EBF3DE"/>
<path d="M25.7935 20.8163H36.1903C36.5801 20.8163 36.84 20.5714 36.84 20.2041V14.6939C36.84 14.3265 36.5801 14.0817 36.1903 14.0817H25.7935C25.4037 14.0817 25.1438 14.3265 25.1438 14.6939V20.2041C25.1437 20.5714 25.4037 20.8163 25.7935 20.8163ZM26.4433 15.3061H35.5405V19.5918H26.4433V15.3061Z" fill="#101010"/>
<path d="M8.24901 12.8571H13.4474C13.8373 12.8571 14.0972 12.6122 14.0972 12.2449C14.0972 11.8775 13.8373 11.6326 13.4474 11.6326H8.24901C7.85913 11.6326 7.59924 11.8775 7.59924 12.2449C7.59924 12.6122 7.85913 12.8571 8.24901 12.8571Z" fill="#101010"/>
<path d="M16.0466 12.8571H21.245C21.6349 12.8571 21.8947 12.6122 21.8947 12.2449C21.8947 11.8775 21.6349 11.6326 21.245 11.6326H16.0466C15.6567 11.6326 15.3968 11.8775 15.3968 12.2449C15.3968 12.6122 15.6567 12.8571 16.0466 12.8571Z" fill="#101010"/>
<path d="M8.24901 15.3061H16.6963C17.0862 15.3061 17.3461 15.0612 17.3461 14.6939C17.3461 14.3265 17.0862 14.0817 16.6963 14.0817H8.24901C7.85913 14.0817 7.59924 14.3265 7.59924 14.6939C7.59924 15.0612 7.85913 15.3061 8.24901 15.3061Z" fill="#101010"/>
<path d="M21.2449 14.0816H19.2955C18.9056 14.0816 18.6457 14.3265 18.6457 14.6938C18.6457 15.0612 18.9056 15.306 19.2955 15.306H21.2449C21.6348 15.306 21.8947 15.0612 21.8947 14.6938C21.8947 14.3265 21.6348 14.0816 21.2449 14.0816Z" fill="#101010"/>
<path d="M43.403 6.48978C42.9482 5.93876 42.3634 5.63261 41.6486 5.57141L40.089 5.39333V2.44896C40.089 1.10204 38.9194 3.50309e-09 37.4899 3.50309e-09H7.59916C6.16963 -7.1744e-05 5 1.10197 5 2.44896V22.0408C5 23.1467 5.78867 24.0869 6.86205 24.3883C6.82931 25.6268 7.82388 26.702 9.15875 26.8163L39.1794 30C39.2443 30 39.3743 30 39.4393 30C40.7389 30 41.9085 29.0816 42.0384 27.9184L43.9878 8.26531C44.0528 7.65302 43.8578 6.97953 43.403 6.48978ZM6.29962 4.28569H38.7895V7.95917H6.29962V4.28569ZM7.59916 1.22444H37.4898C38.2046 1.22444 38.7894 1.77546 38.7894 2.44896V3.06118H6.29962V2.44896C6.29962 1.77546 6.88444 1.22444 7.59916 1.22444ZM6.29962 22.0408V9.18361H38.7895V22.0408C38.7895 22.7143 38.2047 23.2653 37.4899 23.2653H7.59924C6.88444 23.2653 6.29962 22.7143 6.29962 22.0408ZM42.6882 8.02037L40.7388 27.6734C40.6739 28.3469 40.024 28.8367 39.3093 28.7755L9.35361 25.5918C8.70384 25.5306 8.24893 25.0408 8.18398 24.4898H37.4898C38.9193 24.4898 40.089 23.3877 40.089 22.0408V6.55098L41.5835 6.67345C41.9084 6.67345 42.2333 6.85712 42.4282 7.102C42.6233 7.34687 42.7532 7.71422 42.6882 8.02037Z" fill="#101010"/>
</svg>
