<svg width="54" height="55" viewBox="0 0 54 55" fill="none" xmlns="http://www.w3.org/2000/svg">
<rect y="11" width="44" height="44" rx="2" fill="#EBF3DE"/>
<path d="M53.1835 40.0001H48.3201C48.8343 39.3077 49.1487 38.445 49.1818 37.5001V5.00001C49.1818 2.6667 47.3852 0.833302 45.0984 0.833302H35.2167C35.2167 0.333301 34.8901 0 34.4001 0H24.6C24.11 0 23.7834 0.333301 23.7834 0.833302H13.9834C11.6966 0.833302 9.90001 2.6667 9.90001 5.00001V37.5001C9.90001 38.445 10.1948 39.3077 10.6972 40.0001H5.81664C5.32664 40.0001 5 40.3334 5 40.8334V45.8334C5 46.3334 5.32664 46.6667 5.81664 46.6667H6.63327V49.1667C6.63327 49.6667 6.95991 50 7.44991 50H13.9833C14.4733 50 14.7999 49.6667 14.7999 49.1667V46.6667H25.4166V49.1667C25.4166 49.6667 25.7432 50 26.2332 50H32.7666C33.2566 50 33.5832 49.6667 33.5832 49.1667V46.6667H44.2001V49.1667C44.2001 49.6667 44.5267 50 45.0167 50H51.5501C52.0401 50 52.3667 49.6667 52.3667 49.1667V46.6667H53.1834C53.6734 46.6667 54 46.3334 54 45.8334V40.8334C54.0001 40.3334 53.6735 40.0001 53.1835 40.0001ZM33.5834 1.6667V9.83342L29.99 6.83341C29.9084 6.75011 29.6634 6.66671 29.5 6.66671C29.3367 6.66671 29.0917 6.75001 29.01 6.91671L25.4167 9.91672V1.6667H33.5834ZM11.5334 37.5001V5.00001C11.5334 3.58331 12.595 2.5 13.9834 2.5H23.7834V11.6667C23.7834 12 23.9468 12.25 24.1918 12.4167C24.5184 12.5834 24.8451 12.5 25.0901 12.3334L29.5001 8.58341L33.8285 12.3334C34.0178 12.4622 34.3045 12.5406 34.5381 12.493C34.6074 12.4842 34.6803 12.4642 34.7268 12.4167C35.0534 12.25 35.2168 12 35.2168 11.6667V2.5H45.0168C46.4052 2.5 47.4668 3.58331 47.4668 5.00001V37.5001C47.4668 38.9168 46.4052 40.0001 45.0168 40.0001H13.9834C12.595 40.0001 11.5334 38.9168 11.5334 37.5001ZM13.1667 48.3334H8.26664V46.6667H13.1667V48.3334ZM31.9501 48.3334H27.05V46.6667H31.9501V48.3334ZM50.7335 48.3334H45.8334V46.6667H50.7335V48.3334ZM52.3667 45.0001H6.63337V41.6668H52.3668L52.3667 45.0001Z" fill="#101010"/>
<path d="M44.2001 36.6668H40.1167C39.6267 36.6668 39.3001 37.0001 39.3001 37.5001C39.3001 38.0001 39.6267 38.3334 40.1167 38.3334H44.2001C44.6901 38.3334 45.0167 38.0001 45.0167 37.5001C45.0167 37.0001 44.6901 36.6668 44.2001 36.6668Z" fill="#101010"/>
<path d="M45.0167 34.1668C45.0167 33.6668 44.6901 33.3335 44.2001 33.3335H38.4834C37.9934 33.3335 37.6668 33.6668 37.6668 34.1668C37.6668 34.6668 37.9934 35.0001 38.4834 35.0001H44.2001C44.6901 35.0001 45.0167 34.6668 45.0167 34.1668Z" fill="#101010"/>
</svg>
