<?xml version="1.0" encoding="UTF-8"?> <svg xmlns="http://www.w3.org/2000/svg" width="139" height="25" viewBox="0 0 139 25" fill="none"><path d="M8.37271 7.3667H2.45294V2.70003H20.4412V7.3667H14.5214V24.1667H8.37271V7.3667Z" fill="white"></path><path d="M23.6977 2.70003H39.6582V7.50003H29.8464V11H38.4481V15.8667H29.8464V19.3667H39.6582V24.1667H23.6977V2.70003Z" fill="white"></path><path d="M47.8625 7.3667H41.9427V2.70003H59.931V7.3667H54.0112V24.1667H47.8625V7.3667Z" fill="white"></path><path d="M63.1875 2.70003H69.3362V10.7H76.5969V2.70003H82.7456V24.1667H76.5969V16.1667H69.3362V24.1667H63.1875V2.70003Z" fill="white"></path><path d="M94.2737 16.3L86.6859 2.70003H93.0963L97.348 10.8L101.6 2.70003H108.01L100.422 16.3V24.1667H94.2737V16.3Z" fill="white"></path><path d="M116.701 24.5C115.262 24.5 113.91 24.3889 112.645 24.1667C111.381 23.9223 110.312 23.5889 109.44 23.1667V18C110.443 18.4667 111.544 18.8445 112.743 19.1334C113.943 19.4223 115.055 19.5667 116.079 19.5667C117.257 19.5667 118.096 19.4667 118.598 19.2667C119.121 19.0445 119.383 18.6223 119.383 18C119.383 17.6 119.252 17.2778 118.99 17.0334C118.75 16.7667 118.391 16.5445 117.911 16.3667C117.431 16.1667 116.668 15.9 115.621 15.5667C115.273 15.4778 115.011 15.4 114.836 15.3334C113.397 14.8667 112.264 14.3556 111.435 13.8C110.628 13.2445 110.04 12.5778 109.669 11.8C109.32 11 109.146 10.0111 109.146 8.83337C109.146 6.72226 109.887 5.12226 111.37 4.03337C112.852 2.92225 115.033 2.3667 117.911 2.3667C119.023 2.3667 120.189 2.4667 121.41 2.6667C122.653 2.84448 123.678 3.0667 124.485 3.33337V8.53337C122.566 7.75559 120.702 7.3667 118.892 7.3667C117.736 7.3667 116.864 7.45559 116.276 7.63337C115.709 7.81114 115.425 8.20003 115.425 8.80003C115.425 9.17781 115.545 9.47781 115.785 9.70003C116.025 9.92226 116.385 10.1223 116.864 10.3C117.366 10.4556 118.205 10.6889 119.383 11C121.062 11.4667 122.348 12.0334 123.242 12.7C124.158 13.3445 124.79 14.0889 125.139 14.9334C125.488 15.7778 125.662 16.8 125.662 18C125.662 20 124.899 21.5889 123.373 22.7667C121.868 23.9223 119.644 24.5 116.701 24.5Z" fill="white"></path><path d="M130.66 20H135.5V24.5H130.66V20Z" fill="#7CBFF0"></path></svg> 