<svg width="54" height="33" viewBox="0 0 54 33" fill="none" xmlns="http://www.w3.org/2000/svg">
<path d="M0 8C0 6.89543 0.89543 6 2 6H35C36.1046 6 37 6.89543 37 8V11C37 12.1046 37.8954 13 39 13H41.3604C42.3138 13 43.1346 13.6729 43.3216 14.6078L44.3082 19.5408C44.4292 20.146 44.8229 20.6614 45.3749 20.9374L47.3944 21.9472C48.072 22.286 48.5 22.9785 48.5 23.7361V31C48.5 32.1046 47.6046 33 46.5 33H2C0.895431 33 0 32.1046 0 31V8Z" fill="#F3DEDE"/>
<path d="M14 25.4358C13.0833 25.4358 12.3333 26.1742 12.3333 27.0768C12.3333 27.9794 13.0833 28.7179 14 28.7179C14.9167 28.7179 15.6667 27.9794 15.6667 27.0768C15.6667 26.1742 14.9167 25.4358 14 25.4358Z" fill="#101010"/>
<path d="M44 25.4358C43.0833 25.4358 42.3333 26.1742 42.3333 27.0768C42.3333 27.9794 43.0833 28.7179 44 28.7179C44.9167 28.7179 45.6667 27.9794 45.6667 27.0768C45.6667 26.1742 44.9167 25.4358 44 25.4358Z" fill="#101010"/>
<path d="M40.5234 17.7692H38.8567C38.3567 17.7692 38.0234 18.0974 38.0234 18.5897C38.0234 19.082 38.3567 19.4101 38.8567 19.4101H40.5234C41.0234 19.4101 41.3567 19.082 41.3567 18.5897C41.3567 18.0974 41.0234 17.7692 40.5234 17.7692Z" fill="#101010"/>
<path d="M52.9167 17.9692L49.6667 16.6564L47.5834 8.45132C47.3334 7.30257 46.3334 6.56412 45.1667 6.56412H39.8334V1.64105C39.8334 0.738459 39.0834 0 38.1667 0H5.6667C4.75 0 4 0.738459 4 1.64105V26.2564C4 27.159 4.75 27.8974 5.6667 27.8974H9.07129C9.47119 30.218 11.5339 32 14 32C16.4661 32 18.5288 30.218 18.9287 27.8974H39.0713C39.4712 30.218 41.5339 32 44 32C46.4661 32 48.5288 30.218 48.9287 27.8974H52.3333C53.25 27.8974 54 27.159 54 26.2564V19.5282C54 18.7897 53.5833 18.2153 52.9167 17.9692ZM5.6667 1.64105H38.1667V8.20507C38.1667 12.3077 34.8334 15.5897 30.6667 15.5897H5.6667V1.64105ZM14 30.3589C12.1667 30.3589 10.6667 28.8819 10.6667 27.0768C10.6667 25.2718 12.1667 23.7948 14 23.7948C15.8333 23.7948 17.3333 25.2718 17.3333 27.0768C17.3333 28.8819 15.8333 30.3589 14 30.3589ZM44 30.3589C42.1667 30.3589 40.6667 28.8819 40.6667 27.0768C40.6667 25.2718 42.1667 23.7948 44 23.7948C45.8333 23.7948 47.3333 25.2718 47.3333 27.0768C47.3333 28.8819 45.8333 30.3589 44 30.3589ZM48.9287 26.2564C48.6474 24.6237 47.5428 23.2586 46.0533 22.5923C46.0203 22.5774 45.9875 22.5621 45.954 22.5479C45.9331 22.5391 45.9118 22.5311 45.8907 22.5225C45.8367 22.5005 45.7824 22.479 45.7274 22.4589C45.7126 22.4535 45.6976 22.4485 45.6826 22.4432C45.6216 22.4215 45.56 22.4007 45.4978 22.3813C45.4843 22.377 45.4708 22.3731 45.4572 22.3691C45.3939 22.3499 45.3301 22.3319 45.2656 22.3152C45.2514 22.3116 45.2371 22.3079 45.2228 22.3044C45.1595 22.2886 45.0957 22.274 45.0313 22.2606C45.0151 22.2572 44.999 22.2538 44.9828 22.2506C44.9207 22.2383 44.8581 22.2273 44.7951 22.2173C44.7765 22.2144 44.7579 22.2112 44.7392 22.2084C44.6785 22.1995 44.6173 22.192 44.5559 22.1853C44.5351 22.183 44.5144 22.1803 44.4935 22.1782C44.432 22.1722 44.3701 22.1679 44.308 22.1642C44.2875 22.1629 44.2673 22.161 44.2467 22.16C44.1649 22.1561 44.0826 22.1538 43.9997 22.1538C43.9168 22.1538 43.8345 22.1561 43.7527 22.16C43.7322 22.161 43.7119 22.1629 43.6914 22.1642C43.6293 22.1679 43.5674 22.1722 43.506 22.1782C43.4851 22.1802 43.4644 22.183 43.4436 22.1853C43.3821 22.192 43.3209 22.1995 43.2603 22.2084C43.2415 22.2112 43.2229 22.2144 43.2042 22.2173C43.1412 22.2273 43.0787 22.2383 43.0166 22.2505C43.0003 22.2538 42.9842 22.2571 42.968 22.2605C42.9037 22.2739 42.8399 22.2885 42.7767 22.3043C42.7624 22.3078 42.748 22.3114 42.7338 22.3151C42.6693 22.3319 42.6055 22.3498 42.5422 22.3691C42.5287 22.3731 42.5152 22.377 42.5018 22.3813C42.4395 22.4007 42.3779 22.4215 42.3168 22.4432C42.302 22.4485 42.287 22.4535 42.2722 22.4589C42.2171 22.4791 42.1627 22.5006 42.1086 22.5227C42.0876 22.5313 42.0664 22.5393 42.0456 22.548C42.0121 22.5622 41.9792 22.5776 41.9461 22.5925C40.4568 23.2589 39.3522 24.6239 39.071 26.2565H18.9287C18.6474 24.6238 17.5428 23.2587 16.0533 22.5924C16.0203 22.5775 15.9875 22.5622 15.954 22.548C15.9331 22.5392 15.9118 22.5312 15.8907 22.5226C15.8367 22.5006 15.7824 22.4791 15.7274 22.459C15.7126 22.4536 15.6976 22.4486 15.6826 22.4433C15.6216 22.4216 15.56 22.4008 15.4978 22.3814C15.4843 22.3771 15.4708 22.3732 15.4572 22.3692C15.3939 22.35 15.3301 22.332 15.2656 22.3153C15.2514 22.3117 15.2371 22.308 15.2228 22.3045C15.1595 22.2887 15.0957 22.2741 15.0314 22.2607C15.0152 22.2573 14.9991 22.2539 14.9828 22.2507C14.9207 22.2384 14.8581 22.2274 14.7952 22.2174C14.7766 22.2145 14.758 22.2113 14.7393 22.2085C14.6786 22.1995 14.6174 22.1921 14.556 22.1854C14.5352 22.1831 14.5145 22.1804 14.4936 22.1783C14.4321 22.1723 14.3702 22.168 14.3081 22.1643C14.2876 22.163 14.2674 22.1611 14.2468 22.1601C14.165 22.1562 14.0827 22.1539 13.9998 22.1539C13.9169 22.1539 13.8346 22.1562 13.7528 22.1601C13.7323 22.1611 13.712 22.163 13.6915 22.1643C13.6294 22.168 13.5675 22.1723 13.5061 22.1783C13.4852 22.1803 13.4645 22.1831 13.4437 22.1854C13.3822 22.1921 13.321 22.1996 13.2604 22.2085C13.2416 22.2113 13.223 22.2145 13.2043 22.2174C13.1413 22.2274 13.0788 22.2384 13.0167 22.2506C13.0004 22.2539 12.9843 22.2572 12.9681 22.2606C12.9038 22.274 12.84 22.2886 12.7768 22.3044C12.7625 22.3079 12.7481 22.3115 12.7339 22.3152C12.6694 22.332 12.6056 22.3499 12.5423 22.3692C12.5288 22.3732 12.5153 22.3771 12.5019 22.3814C12.4396 22.4008 12.378 22.4216 12.3169 22.4433C12.3021 22.4486 12.2871 22.4536 12.2723 22.459C12.2172 22.4792 12.1628 22.5007 12.1087 22.5228C12.0877 22.5314 12.0665 22.5394 12.0457 22.5481C12.0122 22.5623 11.9793 22.5777 11.9462 22.5926C10.4569 23.259 9.35234 24.624 9.07109 26.2566H5.6667V17.2307H30.6667C35.75 17.2307 39.8334 13.2102 39.8334 8.20507H45.1667C45.5834 8.20507 45.9167 8.53324 46 8.86151L47.8984 16.4102H44.25C43.6667 16.4102 43.1667 15.9179 43.1667 15.3436V11.4872C43.1667 10.9949 42.8334 10.6667 42.3334 10.6667C41.8334 10.6667 41.5001 10.9949 41.5001 11.4872V15.3436C41.5001 16.8205 42.7501 18.0513 44.2501 18.0513H48.6668L52.3335 19.4462V26.2564H48.9287Z" fill="#101010"/>
<path d="M13.1667 3.28201H9C8.5 3.28201 8.1667 3.61018 8.1667 4.10249V13.1281C8.1667 13.6204 8.5 13.9486 9 13.9486C9.5 13.9486 9.8333 13.6204 9.8333 13.1281V9.02555H12.3333C12.8333 9.02555 13.1666 8.69738 13.1666 8.20507C13.1666 7.71277 12.8333 7.38459 12.3333 7.38459H9.8333V4.92306H13.1666C13.6666 4.92306 13.9999 4.59489 13.9999 4.10258C13.9999 3.61028 13.6667 3.28201 13.1667 3.28201Z" fill="#101010"/>
<path d="M27.3333 4.92306C27.8333 4.92306 28.1666 4.59489 28.1666 4.10258C28.1666 3.61028 27.8333 3.28211 27.3333 3.28211H23.1666C22.6666 3.28211 22.3333 3.61028 22.3333 4.10258V13.1282C22.3333 13.6205 22.6666 13.9487 23.1666 13.9487H27.3333C27.8333 13.9487 28.1666 13.6205 28.1666 13.1282C28.1666 12.6359 27.8333 12.3078 27.3333 12.3078H24V9.02574H25.6667C26.1667 9.02574 26.5 8.69757 26.5 8.20526C26.5 7.71296 26.1667 7.38478 25.6667 7.38478H24V4.92325H27.3333V4.92306Z" fill="#101010"/>
<path d="M34.8333 13.1281C34.8333 12.6358 34.5 12.3077 34 12.3077H30.6667V9.02565H32.3334C32.8334 9.02565 33.1667 8.69747 33.1667 8.20517C33.1667 7.71286 32.8334 7.38469 32.3334 7.38469H30.6667V4.92316H34C34.5 4.92316 34.8333 4.59499 34.8333 4.10268C34.8333 3.61037 34.5 3.2822 34 3.2822H29.8333C29.3333 3.2822 29 3.61037 29 4.10268V13.1283C29 13.6206 29.3333 13.9488 29.8333 13.9488H34C34.5 13.9487 34.8333 13.6204 34.8333 13.1281Z" fill="#101010"/>
<path d="M18.7946 9.51132C19.9007 8.97565 20.6666 7.85382 20.6666 6.56402C20.6666 4.75893 19.1666 3.28201 17.3333 3.28201H15.6666C15.1666 3.28201 14.8333 3.61018 14.8333 4.10249V13.1281C14.8333 13.6204 15.1666 13.9486 15.6666 13.9486C16.1666 13.9486 16.4999 13.6204 16.4999 13.1281V9.84612H16.9332L19.9999 13.6204C20.1666 13.8666 20.4166 13.9486 20.6666 13.9486C20.8333 13.9486 20.9999 13.8666 21.1666 13.7845C21.5833 13.5383 21.5833 12.964 21.3333 12.6357L18.7946 9.51132ZM19 6.56412C19 7.44825 18.2799 8.17305 17.3889 8.20238C17.3527 8.20142 17.3166 8.2019 17.2806 8.20517H16.5V4.92306H17.3333C18.25 4.92306 19 5.66152 19 6.56412Z" fill="#101010"/>
</svg>
