<svg width="39" height="39" viewBox="0 0 39 39" fill="none" xmlns="http://www.w3.org/2000/svg">
<rect y="5" width="35" height="34" rx="2" fill="#DEECF3"/>
<path d="M36 1.20002H25.8V0.599977C25.8 0.239977 25.56 0 25.2 0H16.74C16.38 0 16.1401 0.239977 16.1401 0.599977V1.19995H6.00002C4.31998 1.20002 3 2.52 3 4.19998V33C3 34.68 4.31998 36 6.00002 36H36C37.68 36 39 34.68 39 33V4.19998C39 2.52 37.68 1.20002 36 1.20002ZM17.4 1.20002H24.6V8.87998L21.42 6.12C21.3 6.06002 21.12 5.99998 21 5.99998C20.88 5.99998 20.7 6.05995 20.58 6.12L17.4 8.87998V1.20002ZM37.8 33C37.8 34.02 37.02 34.8 36 34.8H6.00002C4.98 34.8 4.20002 34.02 4.20002 33V4.19998C4.20002 3.17995 4.98 2.39998 6.00002 2.39998H16.14V9.11995C16.14 9.59998 16.38 9.95998 16.8 10.14C17.22 10.32 17.64 10.26 18 9.95998L21 7.38L24 9.95998C24.24 10.08 24.48 10.2 24.72 10.2C24.84 10.2 25.02 10.2 25.08 10.14C25.5 9.95998 25.74 9.54 25.74 9.11995V2.39998H36C37.0201 2.39998 37.8 3.17995 37.8 4.19998L37.8 33Z" fill="#101010"/>
<path d="M27.66 14.4C24.6 14.04 22.5 12.96 21.3 12.12C21.12 12 20.82 12 20.64 12.12C19.38 12.96 17.28 14.04 14.28 14.4C13.98 14.46 13.74 14.7 13.74 15V20.46C13.74 24.06 15.36 27.48 18.06 29.58C18.9 30.24 19.86 30.78 20.76 31.14C20.88 31.2 20.94 31.2 21 31.2C21.06 31.2 21.12 31.2 21.18 31.2C22.14 30.84 23.04 30.3 23.88 29.64C26.58 27.5399 28.2 24.1199 28.2 20.5199V14.9999C28.2 14.7 27.96 14.46 27.66 14.4ZM27 20.46C27 23.7 25.56 26.76 23.16 28.62C22.44 29.16 21.72 29.58 21 29.88C20.28 29.58 19.5 29.16 18.84 28.62C16.44 26.76 15 23.7 15 20.46V15.48C17.7 15.06 19.74 14.1 21 13.32C22.26 14.1 24.3 15.06 27 15.48V20.46Z" fill="#101010"/>
<path d="M19.02 15.66C18.24 15.96 17.46 16.2 16.68 16.38C16.38 16.44 16.2 16.68 16.2 16.98V20.52C16.2 22.08 16.56 23.58 17.22 24.9C17.34 25.08 17.52 25.2 17.76 25.2C17.88 25.2 17.94 25.2 18.06 25.14C18.36 25.02 18.48 24.66 18.3 24.36C17.7 23.16 17.4 21.84 17.4 20.5201V17.4601C18.12 17.2801 18.78 17.0401 19.44 16.8C19.74 16.68 19.92 16.32 19.8 16.0201C19.68 15.7201 19.32 15.54 19.02 15.66Z" fill="#101010"/>
<path d="M36 32.4H33C32.64 32.4 32.4 32.64 32.4 33C32.4 33.36 32.64 33.6 33 33.6H36C36.36 33.6 36.6 33.36 36.6 33C36.6 32.64 36.36 32.4 36 32.4Z" fill="#101010"/>
<path d="M36 30H31.8C31.44 30 31.2 30.24 31.2 30.6C31.2 30.96 31.44 31.2 31.8 31.2H36C36.36 31.2 36.6 30.96 36.6 30.6C36.6 30.24 36.36 30 36 30Z" fill="#101010"/>
</svg>
