<svg width="38" height="50" viewBox="0 0 38 50" fill="none" xmlns="http://www.w3.org/2000/svg">
<path d="M35 24.5H17.5H0C0 14.835 7.83502 7 17.5 7C27.165 7 35 14.835 35 24.5Z" fill="#F3DEDE"/>
<path d="M38 18.3333C38 7.9167 30.5 0 20.5 0C10.5 0 3 7.9167 3 18.3333C3 20.5682 4.68223 22.3432 6.87441 22.4891L18 30.8333C17.5 30.8333 17.1667 31.1666 17.1667 31.6666H13C11.5833 31.6666 10.5 32.7499 10.5 34.1666V47.5C10.5 48.9167 11.5833 50 13 50H28C29.4167 50 30.5 48.9167 30.4167 47.5V34.1667C30.4167 32.75 29.3334 31.6667 27.9167 31.6667H23.8334C23.8334 31.1667 23.5001 30.8334 23.0001 30.8334L34.1257 22.4892C36.3178 22.3432 38 20.5682 38 18.3333ZM22.0833 36.75L20.9166 35.9167C20.6666 35.75 20.2499 35.75 19.9999 35.9167L18.8332 36.75V32.5H22.0832L22.0833 36.75ZM10.5 20.8593C11.2548 21.8616 12.4568 22.5 13.8333 22.5C15.2098 22.5 16.4119 21.8616 17.1666 20.8593C17.9214 21.8616 19.1235 22.5 20.5 22.5C21.8765 22.5 23.0786 21.8616 23.8333 20.8593C24.5881 21.8616 25.7901 22.5 27.1666 22.5C28.5431 22.5 29.7452 21.8616 30.4999 20.8593C30.8764 21.3593 31.3644 21.7679 31.9298 22.0525L20.5 30.625L9.07012 22.0526C9.63545 21.7679 10.1235 21.3593 10.5 20.8593ZM11.336 18.0425C11.3366 18.0088 11.3376 17.9746 11.3384 17.9407C11.3398 17.8771 11.3414 17.8133 11.3436 17.7491C11.345 17.7066 11.3468 17.6638 11.3484 17.621C11.3507 17.5653 11.3531 17.5095 11.3559 17.4533C11.3582 17.4058 11.3607 17.3581 11.3635 17.3103C11.3664 17.2592 11.3695 17.2078 11.3729 17.1563C11.3762 17.1043 11.3796 17.0522 11.3833 16.9998C11.3865 16.9544 11.3902 16.9088 11.3937 16.8632C11.3983 16.8051 11.4027 16.747 11.4078 16.6885C11.4105 16.6571 11.4137 16.6256 11.4165 16.5942C11.4387 16.3513 11.465 16.1057 11.4958 15.8575C11.4982 15.8375 11.5006 15.8175 11.5031 15.7974C11.5129 15.7202 11.5232 15.6428 11.5339 15.5653C11.5374 15.5395 11.5409 15.5136 11.5445 15.4876C11.5552 15.4113 11.5663 15.3348 11.5777 15.2581C11.5817 15.2315 11.5857 15.205 11.5897 15.1783C11.6015 15.1012 11.6136 15.0239 11.6261 14.9465C11.6301 14.9216 11.6343 14.8966 11.6384 14.8717C11.6516 14.7915 11.665 14.7113 11.679 14.6309C11.6815 14.6162 11.6843 14.6015 11.6869 14.5868C11.7307 14.3387 11.7785 14.0893 11.8299 13.8391C11.8396 13.7915 11.8492 13.7439 11.8593 13.6963C11.8699 13.646 11.881 13.5956 11.8919 13.5452C11.9058 13.4814 11.9196 13.4177 11.934 13.3539C11.9429 13.3141 11.952 13.2742 11.9611 13.2344C11.9794 13.1546 11.9979 13.0748 12.017 12.9949C12.0229 12.9697 12.029 12.9446 12.0351 12.9194C13.1367 8.35537 15.4531 3.76025 18.3987 2.21338C17.5238 4.45078 17.0167 8.01055 16.7242 11.2173C16.7234 11.226 16.7227 11.2347 16.7219 11.2434C16.7175 11.2921 16.713 11.3409 16.7086 11.3895C16.3989 14.8342 16.3404 17.8328 16.334 18.2771C16.3337 18.2987 16.3335 18.3137 16.3334 18.323C16.3334 18.3279 16.3333 18.3317 16.3333 18.3333C16.3333 19.75 15.25 20.8333 13.8333 20.8333C12.4166 20.8333 11.3333 19.75 11.3333 18.3333C11.3333 18.2372 11.3344 18.1401 11.336 18.0425ZM28.9647 12.9197C28.9708 12.9449 28.9768 12.97 28.9828 12.9952C29.0019 13.0751 29.0204 13.1549 29.0387 13.2347C29.0478 13.2745 29.0569 13.3144 29.0658 13.3542C29.0802 13.418 29.094 13.4817 29.1079 13.5455C29.1188 13.5959 29.1299 13.6462 29.1405 13.6966C29.1506 13.7442 29.1602 13.7917 29.1699 13.8394C29.2213 14.0896 29.2691 14.339 29.3129 14.5871C29.3154 14.6018 29.3182 14.6165 29.3208 14.6312C29.3349 14.7116 29.3482 14.7918 29.3614 14.872C29.3655 14.8969 29.3697 14.9219 29.3737 14.9468C29.3862 15.0242 29.3983 15.1015 29.4101 15.1786C29.4142 15.2053 29.4182 15.2318 29.4221 15.2584C29.4335 15.3351 29.4446 15.4116 29.4553 15.4879C29.4589 15.5139 29.4624 15.5397 29.4659 15.5656C29.4765 15.6432 29.4869 15.7206 29.4967 15.7977C29.4992 15.8178 29.5016 15.8377 29.504 15.8578C29.5348 16.1059 29.5611 16.3516 29.5833 16.5945C29.5861 16.626 29.5893 16.6575 29.592 16.6888C29.5971 16.7473 29.6016 16.8053 29.6061 16.8635C29.6097 16.9091 29.6133 16.9547 29.6165 17.0001C29.6203 17.0524 29.6236 17.1046 29.6269 17.1566C29.6303 17.2081 29.6334 17.2594 29.6363 17.3105C29.6391 17.3584 29.6416 17.4061 29.6439 17.4536C29.6467 17.5098 29.6491 17.5655 29.6514 17.6213C29.6531 17.6641 29.6549 17.7068 29.6563 17.7494C29.6584 17.8136 29.66 17.8773 29.6614 17.941C29.6622 17.9749 29.6632 18.009 29.6638 18.0428C29.6654 18.1404 29.6664 18.2375 29.6664 18.3336C29.6664 19.7503 28.5831 20.8336 27.1664 20.8336C25.7497 20.8336 24.6664 19.7503 24.6664 18.3336C24.6664 18.332 24.6664 18.3282 24.6663 18.3233C24.6662 18.314 24.666 18.299 24.6657 18.2773C24.6593 17.8331 24.6008 14.8345 24.2911 11.3897C24.2868 11.3412 24.2823 11.2924 24.2778 11.2437C24.277 11.235 24.2763 11.2263 24.2755 11.2176C23.983 8.01074 23.4759 4.45098 22.601 2.21367C25.5469 3.76025 27.8633 8.35537 28.9647 12.9197ZM20.5 1.75C21.6667 2.75 23 11.4167 23 18.3333C23 19.75 21.9167 20.8333 20.5 20.8333C19.0833 20.8333 18 19.75 18 18.3333C18 11.4167 19.3333 2.8333 20.5 1.75ZM36.3333 18.3333C36.3333 19.75 35.25 20.8333 33.8333 20.8333C32.4166 20.8333 31.3333 19.75 31.3333 18.3333C31.3333 18.1883 31.331 18.0413 31.3276 17.8936C31.3268 17.8556 31.3257 17.8175 31.3246 17.7794C31.3209 17.6505 31.3161 17.5206 31.3099 17.3898C31.3089 17.3691 31.3082 17.3486 31.3071 17.3278C31.2991 17.1692 31.2893 17.0094 31.2776 16.8483C31.2768 16.8356 31.2757 16.8229 31.2747 16.8102C31.2631 16.653 31.2497 16.4948 31.2347 16.3355C31.2339 16.3271 31.2331 16.3187 31.2323 16.3102C31.0351 14.2403 30.5511 12.0071 29.8198 9.87647C29.8147 9.86162 29.8097 9.84678 29.8045 9.83193C29.7506 9.67559 29.6955 9.51963 29.639 9.36455C29.6316 9.34434 29.6244 9.32393 29.617 9.30371C29.5674 9.16885 29.5167 9.03457 29.4651 8.90078C29.4259 8.79854 29.3857 8.69697 29.3454 8.59551C29.3373 8.5752 29.3292 8.55488 29.321 8.53467C28.3815 6.18867 27.1434 4.04727 25.6665 2.5001C32 4.6667 36.3333 10.75 36.3333 18.3333ZM4.6667 18.3333C4.6667 10.75 9 4.6666 15.3334 2.5C13.8565 4.04717 12.6184 6.18867 11.6789 8.53457C11.6707 8.55488 11.6626 8.5752 11.6545 8.59541C11.6142 8.69688 11.5739 8.79854 11.5348 8.90068C11.4832 9.03447 11.4325 9.16875 11.3829 9.30361C11.3755 9.32383 11.3684 9.34414 11.3609 9.36445C11.3043 9.51953 11.2493 9.67549 11.1954 9.83184C11.1903 9.84668 11.1853 9.86152 11.1801 9.87637C10.4489 12.007 9.96494 14.2402 9.76758 16.3101C9.7668 16.3186 9.76602 16.3271 9.76523 16.3354C9.75019 16.4946 9.73682 16.6529 9.7252 16.8101C9.72422 16.8228 9.72314 16.8355 9.72227 16.8482C9.71064 17.0093 9.70078 17.1691 9.69277 17.3277C9.6917 17.3485 9.69101 17.369 9.69004 17.3897C9.68389 17.5206 9.679 17.6504 9.67529 17.7793C9.67422 17.8175 9.67305 17.8556 9.67226 17.8935C9.66885 18.0412 9.6666 18.1882 9.6666 18.3332C9.6666 19.7499 8.5833 20.8332 7.1666 20.8332C5.75 20.8333 4.6667 19.75 4.6667 18.3333ZM28 33.3333C28.5 33.3333 28.8333 33.6666 28.8333 34.1666V47.5C28.8333 48 28.5 48.3333 28 48.3333H13C12.5 48.3333 12.1667 48 12.1667 47.5V34.1667C12.1667 33.6667 12.5 33.3334 13 33.3334H17.1667V38.3334C17.1667 38.6667 17.3334 38.9167 17.6667 39.0001C17.9167 39.1668 18.25 39.1668 18.5 39.0001L20.5 37.6667L22.5833 39.0834C22.8333 39.2501 23.1666 39.2501 23.4166 39.0834C23.6666 38.9167 23.8333 38.6667 23.8333 38.3334V33.3334L28 33.3333Z" fill="#101010"/>
<path d="M27.1667 45.8333H25.5C25 45.8333 24.6667 46.1666 24.6667 46.6666C24.6667 47.1666 25 47.4999 25.5 47.4999H27.1667C27.6667 47.4999 28 47.1666 28 46.6666C28 46.1666 27.6667 45.8333 27.1667 45.8333Z" fill="#101010"/>
<path d="M23 44.1667C23 44.6667 23.3333 45 23.8333 45H27.1666C27.6666 45 27.9999 44.6667 27.9999 44.1667C27.9999 43.6667 27.6666 43.3334 27.1666 43.3334H23.8333C23.3333 43.3333 23 43.6667 23 44.1667Z" fill="#101010"/>
</svg>
