<?xml version="1.0" encoding="UTF-8"?> <svg xmlns="http://www.w3.org/2000/svg" width="472" height="468" viewBox="0 0 472 468" fill="none"><path d="M80.4999 81.2C83.1079 11.372 78.1489 6.38297 58.5649 25.322C51.2778 32.3695 55.4386 34.002 60.7902 36.1017C69.8209 39.645 82.2428 44.5189 48.7679 78.989C17.7896 110.888 53.8927 172.18 104.388 232.76C45.6305 306.573 6.88675 400.846 79.1529 396.615C74.5271 388.278 86.4883 329.461 135.819 268.595C161.273 296.385 187.591 322.693 209.297 344.392C211.69 346.784 214.027 349.119 216.3 351.395C291.607 418.069 402.481 470.162 397.851 391.824C388.724 396.9 318.939 381.955 252.3 319.6C227.042 295.967 195.857 266.015 167.016 234.125C230.259 167.625 325.181 76.5406 389.364 78.989C459.146 81.651 464.129 76.687 445.188 57.06C438.137 49.7535 436.011 54.6054 433.289 60.8193C428.699 71.2977 422.413 85.6491 387.951 52.108C336.916 2.43702 213.936 120.433 136.248 197.985C103.413 156.588 79.2487 114.701 80.4999 81.2Z" fill="url(#paint0_radial)"></path><path fill-rule="evenodd" clip-rule="evenodd" d="M233.106 88.471C139.951 15.3925 50.0323 -21.3133 14.1111 14.648C-37.8599 66.677 73.4001 215.424 89.7511 231.79C90.5274 232.567 91.2714 233.274 91.9841 233.914C91.2818 234.542 90.5389 235.247 89.7531 236.033C73.4001 252.4 -37.8519 401.155 14.1431 453.206C50.0811 489.183 140.013 452.487 233.172 379.413C279.409 420.741 409.051 500.702 456.46 453.24C498.735 410.918 442.401 308.157 381.002 233.983C442.424 159.799 498.804 56.9701 456.494 14.615C409.04 -32.8905 279.285 47.1631 233.106 88.471ZM134.609 197.553C135.067 197.963 135.451 198.307 135.684 198.54C136.196 199.053 172.748 166.199 199.224 142.274C236.768 172.865 273.797 207.633 300.752 233.957C273.455 260.614 235.842 295.914 197.825 326.767C185.972 316.371 173.618 305.29 163.242 295.455C155.141 287.777 148.386 280.691 143.542 275.609C139.434 271.3 136.7 268.431 135.684 267.866C135.562 267.8 127.911 278.477 127.911 278.477C127.911 278.477 158.597 307.897 187.151 335.301C131.279 379.266 76.5382 410.973 54.4211 388.832C11.8601 346.224 103.885 238.862 103.885 238.862C103.885 238.862 103.893 238.791 103.905 238.662C106.651 236.812 106.205 231.291 103.88 228.964C99.6291 224.708 11.8511 121.606 54.3941 79.017C76.4713 56.9159 131.086 88.5106 186.875 132.384C166.09 152.152 143.541 173.719 128.617 188.637C130.242 192.46 130.299 192.846 130.471 193.171C130.528 193.277 130.597 193.377 130.737 193.589C131.545 194.808 133.356 196.43 134.609 197.553ZM247.333 99.8954C279.422 126.255 311.589 156.694 341.771 189.739C381.937 143.126 423.262 90.2868 386.537 53.523C354.588 21.5398 283.083 71.2264 247.333 99.8954ZM341.45 278.572C311.2 311.652 278.966 342.11 246.821 368.464C265.906 383.364 352.928 447.95 386.511 414.326C418.411 382.387 380.446 326.309 341.45 278.572Z" fill="url(#paint1_radial)"></path><defs><radialGradient id="paint0_radial" cx="0" cy="0" r="1" gradientUnits="userSpaceOnUse" gradientTransform="translate(399 210) rotate(174.452) scale(263.736 265.583)"><stop stop-color="#802323"></stop><stop offset="1" stop-color="#E34545"></stop></radialGradient><radialGradient id="paint1_radial" cx="0" cy="0" r="1" gradientUnits="userSpaceOnUse" gradientTransform="translate(351 234) rotate(149.404) scale(400.8 403.356)"><stop stop-color="#E34545"></stop><stop offset="1" stop-color="#802323"></stop></radialGradient></defs></svg> 